{"glyphs":{"0":{"ha":1208,"x_min":-286,"x_max":1429,"o":"m -286 299 l 968 299 q 1429 1461 968 310 l 186 1461 q -142 650 174 1461 l -286 299 m 1234 1329 l 1234 1324 q 876 431 1222 1301 l -90 431 l 272 1329 l 1234 1329 m 433 1036 q 313 725 433 1022 l 709 725 l 831 1036 l 433 1036 z "},"1":{"ha":805,"x_min":-26,"x_max":1010,"o":"m -8 898 l 205 898 l 216 892 l -26 294 l 550 294 l 1010 1456 l 222 1456 q -8 898 205 1438 m 314 1324 l 814 1324 l 814 1318 q 458 426 803 1296 l 176 426 l 412 1030 l 187 1030 q 314 1324 292 1300 z "},"2":{"ha":1233,"x_min":-280,"x_max":1429,"o":"m 180 1456 q -280 294 -280 304 l 968 294 l 1429 1456 l 180 1456 m 278 1324 l 1234 1324 q 1021 800 1032 800 l 353 800 q 283 644 339 795 l 963 644 q 871 426 881 431 l -85 426 l 117 944 l 796 944 q 859 1105 806 944 l 186 1105 l 186 1111 q 278 1324 270 1324 z "},"3":{"ha":1238,"x_min":-280,"x_max":1429,"o":"m 180 1456 l -9 972 l 290 972 l 290 967 q 215 777 215 789 l -85 777 q -280 294 -96 777 l 968 294 q 1429 1456 1429 1445 l 180 1456 m 272 1324 l 1234 1324 q 871 426 882 426 l -85 426 q 7 644 -6 644 l 681 644 q 744 800 681 654 l 370 800 l 370 806 l 422 944 l 796 944 q 859 1105 808 944 l 186 1105 l 186 1111 q 272 1324 237 1231 z "},"4":{"ha":1251,"x_min":-142,"x_max":1296,"o":"m -142 593 l 231 593 l 117 294 l 686 294 q 801 593 801 582 l 1101 593 q 1296 1076 1112 593 l 623 1076 q 772 1456 623 1091 l 208 1456 q -142 593 191 1444 m 289 1324 l 571 1324 q 421 944 571 1308 l 1101 944 q 1008 725 1027 735 l 721 725 q 594 426 703 709 l 312 426 l 427 725 l 53 725 l 53 731 q 289 1324 283 1298 z "},"5":{"ha":1255,"x_min":-269,"x_max":1447,"o":"m 198 1456 q -269 294 -146 589 l 986 294 l 1447 1456 l 198 1456 m 296 1324 l 1251 1324 q 1159 1105 1169 1105 l 479 1105 l 428 944 l 1101 944 q 888 426 899 430 l -67 426 q 25 644 3 629 l 699 644 l 756 800 l 83 800 q 296 1324 283 1324 z "},"6":{"ha":1239,"x_min":-280,"x_max":1435,"o":"m 180 1456 q -280 294 -280 302 l 968 294 q 1435 1456 1394 1367 l 180 1456 m 278 1324 l 1234 1324 q 1141 1105 1155 1106 l 462 1105 l 410 944 l 1084 944 q 871 426 881 430 l -85 426 q 278 1324 267 1324 m 283 644 l 681 644 q 744 800 715 739 l 353 800 q 283 644 339 795 z "},"7":{"ha":1224,"x_min":-38,"x_max":1435,"o":"m 180 1456 l -38 898 l 261 898 l 261 892 l 20 294 l 595 294 q 745 644 722 644 q 1263 1019 1258 1008 q 1435 1456 1263 1034 l 180 1456 m 273 1324 l 1234 1324 q 1124 1076 1147 1076 q 612 708 663 758 q 503 426 509 450 l 221 426 q 388 817 363 817 q 681 1030 681 1025 l 157 1030 l 157 1036 q 273 1324 169 1058 z "},"8":{"ha":1251,"x_min":-254,"x_max":1461,"o":"m 207 1461 q -254 299 207 1451 l 989 299 q 1317 1111 1001 299 l 1461 1461 l 207 1461 m 298 1329 l 1260 1329 l 1260 1324 l 909 431 l -58 431 l -58 437 q 298 1329 166 989 m 437 949 l 834 949 l 886 1111 l 500 1111 q 437 949 488 1111 m 374 806 q 310 650 374 799 l 701 650 q 770 806 713 654 l 374 806 z "},"9":{"ha":1244,"x_min":-260,"x_max":1455,"o":"m -260 299 l 995 299 q 1455 1461 1012 359 l 212 1461 q -87 725 197 1455 q -260 299 -93 720 m 304 1329 l 1254 1329 l 1254 1324 l 903 431 l -64 431 l 22 650 l 695 650 q 764 806 711 659 l 91 806 l 91 811 q 304 1329 284 1316 m 488 1111 l 431 949 l 828 949 q 885 1111 828 962 l 488 1111 z "}," ":{"ha":555,"x_min":0,"x_max":0,"o":""},"!":{"ha":747,"x_min":-77,"x_max":958,"o":"m -77 299 l 486 299 q 814 1111 498 299 l 958 1461 l 395 1461 q 187 956 377 1450 q -77 299 176 942 m 475 1329 l 757 1329 l 757 1324 q 544 806 566 825 l 268 806 q 475 1329 475 1319 m 205 650 l 486 650 q 406 431 406 441 l 118 431 l 205 650 z "},",":{"ha":534,"x_min":-77,"x_max":745,"o":"m 170 783 l -77 144 l 210 144 q 498 340 233 144 q 619 472 619 408 q 745 783 625 477 l 170 783 m 273 650 l 544 650 l 544 644 q 446 466 486 466 q 164 276 188 276 l 118 276 q 273 650 250 630 z "},".":{"ha":471,"x_min":-83,"x_max":682,"o":"m -83 299 l 492 299 q 682 783 492 314 l 118 783 q -83 299 104 770 m 210 650 l 481 650 l 481 644 q 389 426 402 427 l 124 426 l 113 431 q 210 650 190 630 z "},"?":{"ha":1485,"x_min":241,"x_max":1679,"o":"m 431 1461 l 241 979 l 540 979 l 540 972 l 269 299 l 845 299 q 989 673 845 309 l 1363 673 q 1679 1461 1374 673 l 431 1461 m 523 1329 l 1484 1329 q 1271 806 1285 806 l 621 806 l 621 811 l 672 949 l 1127 949 l 1190 1111 l 436 1111 l 436 1116 l 523 1329 m 551 650 l 833 650 l 833 644 l 753 431 l 465 431 q 551 650 551 638 z "},"A":{"ha":1243,"x_min":-257,"x_max":1458,"o":"m 203 1456 l -257 294 l 313 294 l 370 443 l 479 443 q 422 294 422 301 l 986 294 q 1314 1105 998 294 l 1458 1456 l 203 1456 m 295 1324 l 1257 1324 q 894 426 907 426 l 618 426 l 618 431 q 675 576 629 454 l 278 576 q 215 426 229 431 l -62 426 l 295 1324 m 462 1030 l 399 869 l 796 869 q 859 1030 796 878 l 462 1030 z "},"B":{"ha":1156,"x_min":-262,"x_max":1361,"o":"m -262 294 l 785 294 q 1067 484 809 294 q 1183 783 1067 494 q 1137 857 1137 840 q 1269 1002 1269 932 q 1361 1232 1280 1008 q 1223 1456 1232 1455 l 210 1456 q -60 794 193 1442 q -262 294 -66 791 m 290 1324 l 1154 1324 q 1211 1215 1211 1223 q 1096 990 1135 990 q 958 892 972 907 q 1033 766 958 888 q 941 558 954 558 l 757 426 l -66 426 q 290 1324 290 1314 m 486 1105 l 429 944 l 826 944 q 883 1105 826 961 l 486 1105 m 366 800 q 302 644 331 705 l 693 644 q 762 800 707 649 l 366 800 z "},"C":{"ha":1097,"x_min":-286,"x_max":1308,"o":"m -286 294 l 848 294 q 1066 852 848 308 l 583 852 q 612 898 598 895 l 1089 898 q 1308 1456 1089 909 l 186 1456 q -142 644 174 1456 q -286 294 -148 641 m 1107 1324 l 1107 1318 l 998 1030 l 519 1030 q 387 720 503 1013 l 865 720 l 865 713 l 755 426 l -90 426 l 272 1324 l 1107 1324 z "},"D":{"ha":1132,"x_min":-286,"x_max":1343,"o":"m -286 294 l 779 294 q 1049 495 1005 451 q 1343 1225 1176 831 q 1199 1456 1220 1434 l 186 1456 q -142 644 174 1456 q -286 294 -165 600 m 1124 1324 q 1193 1220 1128 1324 q 928 564 945 598 l 732 426 l -90 426 l 272 1324 l 1124 1324 m 433 1030 q 313 720 433 1017 l 709 720 l 831 1030 l 433 1030 z "},"E":{"ha":1109,"x_min":-280,"x_max":1314,"o":"m -280 294 l 842 294 q 1038 777 857 294 l 859 777 q 945 972 939 972 l 1124 972 q 1314 1456 1124 985 l 192 1456 q -33 915 178 1449 l -280 294 m 272 1324 l 1112 1324 l 1112 1318 l 1032 1105 l 473 1105 q 410 944 464 1105 l 785 944 q 727 800 773 922 l 347 800 q 283 644 347 791 l 842 644 l 762 426 l -85 426 l -85 431 q 272 1324 2 634 z "},"F":{"ha":1088,"x_min":-286,"x_max":1320,"o":"m 180 1456 l -286 294 l 290 294 q 405 593 290 304 l 785 593 l 934 972 l 1118 972 q 1216 1208 1130 972 q 1320 1456 1239 1255 l 180 1456 m 1118 1324 q 1026 1105 1040 1106 l 462 1105 q 405 944 439 1026 l 779 944 l 779 938 q 686 725 694 725 l 313 725 l 197 426 l -90 426 l 272 1324 l 1118 1324 z "},"G":{"ha":1243,"x_min":-261,"x_max":1454,"o":"m 199 1456 q -261 294 199 1445 l 982 294 q 1310 1105 994 294 q 1454 1456 1356 1206 l 199 1456 m 291 1324 l 1253 1324 l 1253 1318 q 1172 1105 1172 1115 l 487 1105 q 302 644 487 1094 l 694 644 q 763 800 705 648 l 538 800 l 538 806 q 602 944 587 928 l 1103 944 l 901 426 l -66 426 l -66 431 q 291 1324 159 983 z "},"H":{"ha":1246,"x_min":-277,"x_max":1438,"o":"m -277 294 l 286 294 q 385 518 301 307 l 488 518 q 401 294 488 506 l 977 294 q 1438 1456 1006 382 l 873 1456 q 753 1162 862 1456 q 735 1151 739 1151 l 649 1151 l 637 1157 q 758 1456 724 1364 l 195 1456 q -105 720 179 1449 q -277 294 -111 715 m 557 1324 l 557 1318 l 441 1019 l 839 1019 q 966 1324 951 1324 l 1236 1324 l 1236 1318 l 885 426 l 597 426 l 689 650 l 298 650 q 206 426 285 650 l -82 426 q 281 1324 263 1289 l 557 1324 z "},"I":{"ha":545,"x_min":-280,"x_max":755,"o":"m -280 299 l 283 299 q 612 1111 301 310 l 755 1461 l 192 1461 q -108 725 176 1455 q -280 299 -154 625 m 272 1329 l 554 1329 l 554 1324 l 203 431 l -85 431 q 272 1329 272 1318 z "},"J":{"ha":1253,"x_min":-252,"x_max":1463,"o":"m 652 857 l 543 857 q 629 1082 629 1069 l 59 1082 q -252 299 59 1075 l 991 299 q 1291 1036 1006 307 q 1463 1461 1296 1040 l 899 1461 q 652 857 888 1456 m 991 1329 l 1262 1329 l 1262 1324 l 911 431 l -56 431 l 151 949 l 433 949 l 347 725 l 744 725 q 991 1329 968 1309 z "},"K":{"ha":1396,"x_min":-267,"x_max":1592,"o":"m -267 299 l 297 299 q 343 403 311 299 q 407 299 353 403 l 1086 299 l 1086 305 l 752 863 l 1592 1456 l 1592 1461 l 856 1461 q 752 1398 833 1461 l 746 1398 l 746 1404 l 769 1461 l 205 1461 q 33 1042 194 1461 q -267 299 26 1036 m 568 1329 l 568 1324 q 447 1019 562 1298 q 884 1329 488 1042 l 1172 1329 q 764 1036 1137 1295 q 574 892 574 897 q 856 431 579 892 l 493 431 q 320 702 486 433 q 217 431 217 441 l -71 431 l 292 1329 l 568 1329 z "},"L":{"ha":1003,"x_min":-280,"x_max":968,"o":"m 180 1461 q -280 299 -280 310 l 750 299 l 968 857 l 514 857 l 750 1461 l 180 1461 m 278 1329 l 554 1329 l 554 1324 l 313 725 l 773 725 l 773 720 q 658 431 762 697 l -85 431 q 278 1329 267 1329 z "},"M":{"ha":1224,"x_min":-280,"x_max":1435,"o":"m 180 1461 l -280 299 l 963 299 q 1291 1111 975 299 l 1435 1461 l 917 1461 q 744 1352 897 1461 q 675 1461 681 1461 l 180 1461 m 272 1329 l 606 1329 q 709 1157 606 1313 q 945 1329 715 1168 l 1234 1329 q 871 431 884 431 l 669 431 q 876 956 876 947 l 715 956 q 503 431 704 956 l 295 431 q 503 956 295 448 l 330 956 q 117 431 128 431 l -85 431 l -85 437 q 272 1329 232 1221 z "},"N":{"ha":1256,"x_min":-275,"x_max":1440,"o":"m -275 299 l 289 299 q 393 553 304 301 q 548 299 405 552 l 968 299 q 1267 1036 983 307 q 1440 1461 1273 1040 l 876 1461 q 795 1272 867 1461 q 761 1208 769 1209 q 606 1461 614 1459 l 197 1461 q -102 725 182 1455 q -275 299 -183 538 m 277 1329 l 536 1329 q 784 903 784 911 q 916 1225 795 903 q 968 1329 947 1304 l 1239 1329 l 1239 1324 l 888 431 l 623 431 q 370 852 385 852 l 209 431 l -79 431 q 277 1329 277 1317 z "},"O":{"ha":1208,"x_min":-286,"x_max":1429,"o":"m -286 299 l 968 299 q 1429 1461 968 310 l 186 1461 q -142 650 174 1461 l -286 299 m 1234 1329 l 1234 1324 q 876 431 1222 1301 l -90 431 l 272 1329 l 1234 1329 m 433 1036 q 313 725 433 1022 l 709 725 l 831 1036 l 433 1036 z "},"P":{"ha":1123,"x_min":-286,"x_max":1227,"o":"m 180 1461 q -286 299 -39 910 l 290 299 q 405 598 290 310 l 767 598 q 1049 789 791 598 q 1227 1243 1227 1231 q 1095 1461 1095 1444 l 180 1461 m 1009 1329 q 1078 1225 1019 1328 q 917 857 943 857 l 739 731 l 313 731 l 197 431 l -85 431 q 272 1329 -85 448 l 1009 1329 m 462 1111 l 410 949 l 681 949 q 744 1111 696 957 l 462 1111 z "},"Q":{"ha":1289,"x_min":-280,"x_max":1429,"o":"m 180 1456 l -280 294 l 1038 294 q 1234 777 1049 294 l 1158 777 q 1429 1456 1429 1437 l 180 1456 m 272 1324 l 1234 1324 q 963 644 1234 1312 l 1038 644 q 945 426 959 427 l -85 426 q 272 1324 -85 433 m 318 720 l 704 720 q 836 1030 720 735 l 445 1030 q 318 720 433 1030 z "},"R":{"ha":1164,"x_min":-254,"x_max":1369,"o":"m -254 294 l 309 294 q 408 518 319 296 l 511 518 q 425 294 511 506 l 989 294 q 1156 702 1004 294 l 1156 708 q 1138 748 1138 729 q 1219 846 1189 761 l 1369 1232 q 1230 1456 1239 1455 l 218 1456 q -53 794 200 1442 q -254 294 -59 791 m 298 1324 l 1161 1324 q 1219 1215 1219 1223 q 1063 852 1084 858 q 954 783 958 783 l 1006 696 q 908 426 1006 680 l 621 426 q 661 530 661 519 q 586 650 597 646 l 321 650 q 229 426 308 650 l -59 426 q 298 1324 298 1314 m 494 1105 l 436 944 l 833 944 q 890 1105 833 961 l 494 1105 z "},"S":{"ha":1244,"x_min":-265,"x_max":1450,"o":"m -265 294 l 989 294 q 1450 1456 989 306 l 207 1456 q -93 720 191 1449 q -265 294 -98 715 m 298 1324 l 1249 1324 l 1249 1318 q 1168 1105 1249 1308 l 483 1105 l 425 944 l 1099 944 l 897 426 l -70 426 q 17 644 17 636 l 690 644 q 759 800 704 646 l 85 800 l 85 806 q 298 1324 279 1311 z "},"T":{"ha":1242,"x_min":-26,"x_max":1447,"o":"m -26 898 l 273 898 l 37 294 l 676 294 q 860 748 688 294 q 929 898 923 897 l 1228 898 l 1447 1456 l 204 1456 l -26 898 m 296 1324 l 1251 1324 l 1251 1318 q 1136 1030 1240 1296 l 831 1030 q 584 426 597 431 l 233 426 l 233 431 l 475 1030 l 170 1030 q 296 1324 286 1318 z "},"U":{"ha":1224,"x_min":-280,"x_max":1429,"o":"m 180 1456 l -280 294 l 968 294 q 1429 1456 1429 1445 l 859 1456 l 623 852 l 514 852 l 750 1456 l 180 1456 m 272 1324 l 554 1324 l 318 720 l 704 720 q 951 1324 718 725 l 1234 1324 q 871 426 884 426 l -85 426 l 272 1324 z "},"V":{"ha":1103,"x_min":-286,"x_max":1308,"o":"m -286 593 q -102 294 -121 311 l 583 294 q 957 564 940 545 l 1308 1456 l 739 1456 q 491 852 505 857 l 393 852 l 629 1456 l 65 1456 q -108 1030 52 1456 q -286 593 -119 1015 m 433 1324 l 192 720 l 583 720 q 767 1174 595 720 q 836 1324 830 1323 l 1112 1324 l 1112 1318 q 836 639 848 658 l 537 426 l -33 426 l -136 610 l 151 1324 l 433 1324 z "},"W":{"ha":1133,"x_min":-286,"x_max":1343,"o":"m 88 1456 q -286 518 82 1430 q -148 294 -155 295 l 146 294 q 307 397 168 294 l 318 397 q 382 294 372 294 l 675 294 q 951 484 705 294 l 1343 1456 l 88 1456 m 180 1324 l 387 1324 l 387 1318 q 180 794 180 810 l 347 794 q 566 1324 549 1308 l 762 1324 l 762 1318 q 554 794 762 1308 l 727 794 l 934 1324 l 1141 1324 q 831 558 851 572 q 629 426 651 426 l 450 426 l 359 593 l 353 593 l 117 426 l -79 426 q -136 530 -79 436 l 180 1324 z "},"X":{"ha":1299,"x_min":-286,"x_max":1503,"o":"m 19 1047 q 105 886 19 1044 l 100 886 q -113 725 -113 744 l -286 294 l 290 294 q 410 512 357 512 q 519 587 498 587 q 560 518 556 518 q 473 294 473 306 l 1044 294 q 1204 696 1089 428 l 1112 852 q 1337 1030 1337 1013 l 1503 1456 l 940 1456 q 853 1260 930 1448 q 704 1157 847 1260 q 663 1237 663 1215 l 750 1456 l 186 1456 q 19 1047 174 1456 m 278 1324 l 549 1324 l 549 1318 l 514 1215 q 658 967 658 979 l 669 967 q 975 1197 968 1173 q 1032 1324 1023 1322 l 1308 1324 l 1308 1318 q 1204 1082 1219 1095 q 934 892 1177 1070 q 1055 685 1050 701 q 951 426 951 440 l 669 426 l 704 530 l 704 535 q 549 783 557 783 q 347 639 538 766 q 243 547 243 566 q 197 426 197 441 l -90 426 q 7 656 -5 642 q 283 857 280 848 l 163 1059 q 278 1324 267 1317 z "},"Y":{"ha":1316,"x_min":37,"x_max":1527,"o":"m 198 1461 q 37 1053 198 1453 l 261 673 l 117 299 l 687 299 q 837 650 812 637 q 1355 1024 1336 1000 q 1527 1461 1412 1183 l 963 1461 q 848 1192 947 1449 q 699 1088 838 1192 q 652 1157 693 1088 l 768 1461 l 198 1461 m 290 1329 l 572 1329 q 503 1151 538 1230 l 652 892 q 963 1116 945 1098 l 1044 1329 l 1326 1329 q 1199 1070 1242 1070 q 710 720 737 747 q 595 431 699 697 l 313 431 l 411 685 l 186 1065 l 290 1329 z "},"Z":{"ha":1224,"x_min":-280,"x_max":1435,"o":"m 180 1461 l -9 979 l 65 979 q -50 880 -50 890 q -280 299 -280 309 l 968 299 l 1158 783 l 1084 783 l 1084 789 q 1211 903 1211 859 l 1435 1461 l 180 1461 m 272 1329 l 1234 1329 q 1066 932 1095 954 q 882 806 1056 932 l 353 806 q 140 650 159 669 l 963 650 l 963 644 q 871 431 883 440 l -85 431 l -85 437 q 77 817 54 789 q 278 949 256 949 l 790 949 q 1009 1105 993 1099 l 1009 1111 l 186 1111 l 272 1329 z "},"'":{"ha":534,"x_min":-77,"x_max":740,"o":"m 170 1461 q -77 829 -77 838 l 227 829 q 596 1093 573 1069 q 740 1461 740 1448 l 170 1461 m 262 1329 l 544 1329 q 446 1151 489 1151 q 176 956 446 1147 l 118 956 l 118 961 l 262 1329 z "},"-":{"ha":858,"x_min":4,"x_max":1069,"o":"m 194 1157 l 4 673 l 879 673 q 1069 1157 879 686 l 194 1157 m 292 1024 l 873 1024 q 787 806 787 816 l 199 806 l 199 811 q 292 1024 283 1024 z "},"+":{"ha":5726,"x_min":30,"x_max":5621,"o":"m 279 1076 l 567 1076 q 637 1051 618 1076 q 697 1076 650 1076 l 863 1076 q 930 1051 919 1076 q 939 1024 939 1027 q 906 937 925 983 l 974 937 q 1017 1040 979 937 q 1077 1073 1033 1073 l 1451 1073 q 2346 1076 1794 1073 q 2409 1035 2381 1076 q 2466 1076 2409 1069 q 2870 1073 2502 1076 q 2903 1067 2875 1073 q 2941 1073 2928 1073 q 3304 1076 3012 1073 q 3356 1054 3330 1076 q 3421 1076 3381 1076 l 3573 1076 q 3646 1021 3646 1076 q 3616 937 3646 1017 l 3722 937 q 3800 1070 3760 1070 q 3830 1073 3811 1073 l 3952 1073 q 4376 1076 4243 1073 q 4753 1073 4523 1073 q 5094 1076 4842 1073 q 5157 1035 5129 1076 q 5216 1076 5157 1069 l 5385 1076 q 5463 1048 5454 1076 l 5463 1035 q 5431 937 5463 1004 l 5534 937 q 5621 902 5621 937 l 5621 899 q 5499 574 5621 874 q 5420 408 5436 408 q 5398 403 5410 403 l 5238 403 q 5187 441 5208 403 q 5151 403 5187 416 q 4677 400 4808 400 q 4357 403 4489 400 q 3988 400 4243 400 l 3787 400 q 3735 433 3735 400 q 3771 538 3735 452 l 3665 538 q 3589 403 3623 403 q 2759 400 3377 403 q 2482 403 2549 403 q 2439 441 2460 407 q 2395 403 2439 410 l 1969 403 q 1923 449 1923 409 l 1923 452 q 1931 476 1923 456 l 1931 479 l 1929 479 q 1866 400 1908 400 l 1625 400 q 1576 430 1576 400 l 1576 438 q 1606 538 1576 458 l 1600 538 q 1527 403 1556 403 q 1514 400 1522 400 l 1308 400 q 1280 408 1295 400 q 1259 400 1274 408 q 692 403 901 403 l 651 403 q 610 444 610 413 l 610 449 q 629 514 610 457 l 524 514 q 453 403 491 403 l 228 403 q 187 441 187 414 l 187 452 q 217 541 187 462 l 76 541 q 30 587 30 549 q 214 1057 54 667 q 279 1076 229 1076 m 79 590 l 296 590 q 342 701 332 701 l 469 701 q 567 764 484 701 l 570 764 q 502 590 570 760 l 562 590 q 1104 587 746 590 q 1128 642 1120 642 l 1158 642 l 1164 639 q 1145 587 1145 593 l 1354 587 q 1451 815 1369 610 l 1549 815 q 1554 807 1554 815 l 1468 587 l 1712 587 q 1807 815 1785 781 l 1899 815 q 1904 810 1904 814 q 1817 590 1820 607 l 2235 590 q 2273 680 2249 610 l 2276 680 q 2330 590 2293 665 q 2618 587 2401 590 q 3423 590 3174 590 q 3600 1027 3442 630 l 3410 1027 q 3345 989 3396 1027 l 3337 989 q 3312 1027 3329 1013 q 2922 1021 2922 1025 q 2829 796 2839 808 l 2799 796 q 2794 802 2794 796 l 2881 1024 l 2878 1024 q 2455 1027 2833 1024 q 2414 935 2420 939 q 2357 1027 2406 939 q 1443 1024 1747 1024 l 1061 1024 q 968 799 978 808 l 808 799 q 803 804 803 799 q 890 1027 890 1022 l 678 1027 q 646 951 675 1027 l 640 951 q 594 1027 638 959 l 255 1027 q 79 590 250 1027 m 3950 1024 l 3806 1024 l 3630 587 l 3800 587 q 4207 590 4070 587 q 4541 587 4346 587 q 4986 590 4637 587 q 5024 680 5018 673 q 5078 590 5041 665 l 5238 590 q 5366 899 5254 610 l 5417 1027 l 5206 1027 q 5165 935 5197 1020 l 5162 935 q 5105 1027 5154 939 q 4750 1024 4843 1024 q 4378 1027 4525 1024 q 3950 1024 4232 1024 m 290 975 l 564 975 q 589 940 568 975 l 589 937 q 507 785 541 785 q 453 750 467 750 l 301 750 q 255 639 260 639 l 160 639 q 155 644 155 639 q 290 975 279 966 m 716 975 l 814 975 l 814 972 l 727 750 l 892 750 q 898 745 898 749 q 852 639 857 643 l 578 639 l 578 642 q 716 975 699 962 m 1451 975 q 1457 970 1457 975 q 1321 636 1354 707 l 1223 636 l 1218 639 l 1240 693 l 1088 693 q 1063 636 1072 636 l 968 636 q 963 642 963 636 q 1099 975 1090 962 l 1451 975 m 1568 975 l 1918 975 q 1923 967 1923 975 q 1877 864 1884 867 l 1766 864 q 1671 636 1705 697 l 1544 636 l 1544 639 q 1633 864 1544 646 l 1525 864 l 1519 867 q 1568 975 1557 966 m 2026 975 l 2127 975 l 2127 972 q 1997 639 2113 930 l 1891 639 q 2026 975 2019 972 m 2327 975 q 2420 818 2397 865 l 2425 818 q 2493 975 2484 972 l 2591 975 l 2591 972 q 2458 639 2471 657 l 2365 639 q 2281 777 2353 652 q 2265 796 2268 796 q 2203 639 2213 652 l 2100 639 l 2100 642 q 2233 975 2227 967 l 2327 975 m 2705 975 l 2799 975 q 2805 967 2805 975 l 2718 747 l 2862 747 q 2960 975 2875 764 l 3057 975 l 3063 972 q 2924 636 2946 669 l 2574 636 q 2569 642 2569 636 q 2705 975 2699 973 m 3166 975 l 3285 975 q 3328 913 3326 913 q 3415 975 3348 930 l 3521 975 l 3521 972 q 3385 639 3407 669 l 3315 639 l 3315 642 l 3388 834 l 3388 837 l 3331 837 q 3247 639 3314 806 l 3177 639 l 3171 642 q 3247 837 3247 830 l 3187 837 q 3109 644 3183 836 l 3101 639 l 3030 639 l 3030 642 q 3166 975 3155 964 m 3847 975 l 4194 975 q 4199 967 4199 975 q 4167 891 4170 891 l 3914 891 q 3890 831 3909 891 l 4137 831 l 4142 829 q 4064 636 4072 642 l 3711 636 q 3706 642 3706 636 q 3741 718 3733 715 l 3988 718 q 4015 777 3996 718 l 3768 777 l 3762 780 q 3847 975 3829 958 m 4305 975 l 4405 975 l 4405 972 q 4275 639 4392 930 l 4169 639 q 4305 975 4298 972 m 4875 975 q 4845 891 4875 962 l 4587 891 q 4519 718 4579 863 l 4663 718 q 4693 777 4671 718 l 4614 777 q 4609 783 4609 777 q 4636 831 4628 831 l 4818 831 q 4744 636 4818 820 l 4386 636 l 4381 639 l 4517 975 l 4875 975 m 5075 975 q 5168 818 5145 865 l 5173 818 q 5241 975 5232 972 l 5339 975 l 5339 972 q 5206 639 5219 657 l 5113 639 q 5029 777 5101 652 q 5013 796 5016 796 q 4951 639 4961 652 l 4848 639 l 4848 642 q 4980 975 4975 967 l 5075 975 m 339 834 l 439 834 q 464 894 448 834 l 361 894 q 339 834 356 894 m 1137 804 l 1286 804 l 1308 864 l 1161 864 q 1137 804 1155 864 m 1931 487 l 1931 481 l 1934 481 l 1934 487 l 1931 487 z "}}}
